<svg xmlns="http://www.w3.org/2000/svg" viewBox="0 0 800 200" fill="none">
  <defs>
    <linearGradient id="teal" x1="0%" y1="0%" x2="100%" y2="100%">
      <stop offset="0%" stop-color="#0d9488"/>
      <stop offset="100%" stop-color="#14b8a6"/>
    </linearGradient>
    <linearGradient id="navy" x1="0%" y1="0%" x2="100%" y2="100%">
      <stop offset="0%" stop-color="#0f172a"/>
      <stop offset="100%" stop-color="#1e293b"/>
    </linearGradient>
    <linearGradient id="accent" x1="0%" y1="0%" x2="100%" y2="100%">
      <stop offset="0%" stop-color="#0ea5e9"/>
      <stop offset="100%" stop-color="#06b6d4"/>
    </linearGradient>
  </defs>
  <rect x="10" y="55" width="65" height="50" rx="6" fill="url(#navy)" stroke="url(#teal)" stroke-width="2.5"/>
  <polygon points="75,65 95,50 95,110 75,95" fill="url(#navy)" stroke="url(#teal)" stroke-width="2.5"/>
  <circle cx="42" cy="80" r="12" fill="none" stroke="url(#teal)" stroke-width="2"/>
  <circle cx="42" cy="80" r="4" fill="url(#teal)"/>
  <circle cx="25" cy="67" r="3" fill="#ef4444"/>
  <rect x="22" y="68" width="40" height="24" rx="2" fill="none" stroke="url(#accent)" stroke-width="1.5" stroke-dasharray="3,2" opacity="0.7"/>
  <rect x="100" y="55" width="65" height="50" rx="6" fill="url(#navy)" stroke="url(#teal)" stroke-width="2.5"/>
  <polygon points="165,65 185,50 185,110 165,95" fill="url(#navy)" stroke="url(#teal)" stroke-width="2.5"/>
  <circle cx="132" cy="80" r="12" fill="none" stroke="url(#teal)" stroke-width="2"/>
  <circle cx="132" cy="80" r="4" fill="url(#teal)"/>
  <circle cx="115" cy="67" r="3" fill="#ef4444"/>
  <rect x="112" y="68" width="40" height="24" rx="2" fill="none" stroke="url(#accent)" stroke-width="1.5" stroke-dasharray="3,2" opacity="0.7"/>
  <path d="M 80 80 L 95 80" stroke="url(#accent)" stroke-width="2" stroke-dasharray="4,2"/>
  <polygon points="95,76 103,80 95,84" fill="url(#accent)"/>
  <circle cx="198" cy="65" r="4" fill="url(#teal)" opacity="0.8"/>
  <circle cx="198" cy="80" r="4" fill="url(#teal)" opacity="0.8"/>
  <circle cx="198" cy="95" r="4" fill="url(#teal)" opacity="0.8"/>
  <circle cx="215" cy="72" r="4" fill="url(#accent)" opacity="0.8"/>
  <circle cx="215" cy="88" r="4" fill="url(#accent)" opacity="0.8"/>
  <line x1="198" y1="65" x2="215" y2="72" stroke="url(#teal)" stroke-width="1" opacity="0.4"/>
  <line x1="198" y1="65" x2="215" y2="88" stroke="url(#teal)" stroke-width="1" opacity="0.4"/>
  <line x1="198" y1="80" x2="215" y2="72" stroke="url(#teal)" stroke-width="1" opacity="0.4"/>
  <line x1="198" y1="80" x2="215" y2="88" stroke="url(#teal)" stroke-width="1" opacity="0.4"/>
  <line x1="198" y1="95" x2="215" y2="72" stroke="url(#teal)" stroke-width="1" opacity="0.4"/>
  <line x1="198" y1="95" x2="215" y2="88" stroke="url(#teal)" stroke-width="1" opacity="0.4"/>
  <text x="240" y="88" font-family="Segoe UI, system-ui, -apple-system, sans-serif" font-size="52" font-weight="700" fill="#0f172a" letter-spacing="-1">Traffic</text>
  <text x="490" y="88" font-family="Segoe UI, system-ui, -apple-system, sans-serif" font-size="52" font-weight="700" fill="#0d9488" letter-spacing="-1">Vision</text>
  <text x="672" y="88" font-family="Segoe UI, system-ui, -apple-system, sans-serif" font-size="52" font-weight="700" fill="#0ea5e9" letter-spacing="-1">AI</text>
  <text x="242" y="115" font-family="Segoe UI, system-ui, -apple-system, sans-serif" font-size="15" fill="#64748b" font-weight="400" letter-spacing="3">CONTEXT-AWARE  ·  TEMPORALLY VERIFIED  ·  DUAL-CAMERA</text>
  <line x1="240" y1="128" x2="750" y2="128" stroke="#14b8a6" stroke-width="1.5" opacity="0.3"/>
</svg>
